<svg fill="#fff" xmlns="http://www.w3.org/2000/svg" xmlns:xlink="http://www.w3.org/1999/xlink" version="1.1" x="0px" y="0px" viewBox="0 0 100 125" enable-background="new 0 0 100 100" xml:space="preserve"><path d="M66.572,40.376c-1.119,0-2.21,0.114-3.282,0.285V8.417c0-4.137-3.365-7.5-7.5-7.5H19.991c-4.137,0-7.5,3.363-7.5,7.5v83.166  c0,4.135,3.363,7.5,7.5,7.5H55.79c4.135,0,7.5-3.365,7.5-7.5v-9.46c1.072,0.17,2.163,0.284,3.282,0.284  c11.545,0,20.937-9.42,20.937-20.999C87.509,49.811,78.117,40.376,66.572,40.376z M65.002,78.14  c-3.394-2.189-5.944-5.415-7.381-9.232h7.381V78.14z M56.745,65.907c-0.296-1.414-0.455-2.883-0.455-4.392  c0-1.577,0.181-3.12,0.508-4.608h8.204v9H56.745z M48.635,61.408c0-1.557,0.218-3.06,0.589-4.501h4.37  c-0.285,1.498-0.444,3.038-0.444,4.608c0,1.502,0.146,2.968,0.402,4.392h-4.327C48.854,64.466,48.635,62.964,48.635,61.408z   M57.698,53.907c1.461-3.806,3.998-7.049,7.304-9.22v9.22H57.698z M68.143,44.688c3.306,2.171,5.843,5.414,7.304,9.22h-7.304V44.688  z M54.37,53.907h-4.089c1.945-4.253,5.482-7.611,9.848-9.309C57.521,47.138,55.542,50.336,54.37,53.907z M54.297,68.907  c1.131,3.542,3.069,6.695,5.669,9.219c-4.287-1.712-7.756-5.032-9.679-9.219H54.297z M68.143,78.14v-9.232h7.381  C74.087,72.725,71.536,75.95,68.143,78.14z M68.143,65.907v-9h8.204c0.327,1.488,0.508,3.031,0.508,4.608  c0,1.509-0.159,2.978-0.455,4.392H68.143z M79.551,56.907h4.369c0.371,1.441,0.589,2.944,0.589,4.501  c0,1.556-0.219,3.058-0.59,4.499h-4.326c0.257-1.424,0.402-2.89,0.402-4.392C79.995,59.945,79.837,58.405,79.551,56.907z   M82.862,53.907h-4.088c-1.172-3.571-3.15-6.77-5.759-9.309C77.38,46.296,80.917,49.654,82.862,53.907z M46.356,6.812h0.75  c0.828,0,1.5,0.672,1.5,1.5s-0.672,1.5-1.5,1.5h-0.75c-0.828,0-1.5-0.672-1.5-1.5S45.528,6.812,46.356,6.812z M30.856,6.812h10.75  c0.828,0,1.5,0.672,1.5,1.5s-0.672,1.5-1.5,1.5h-10.75c-0.828,0-1.5-0.672-1.5-1.5S30.028,6.812,30.856,6.812z M37.89,95.864  c-2.457,0-4.449-1.992-4.449-4.451c0-2.457,1.992-4.449,4.449-4.449c2.459,0,4.451,1.992,4.451,4.449  C42.341,93.872,40.349,95.864,37.89,95.864z M58.796,84.292H16.983V15.831h41.813v26.065c-7.702,3.109-13.161,10.676-13.161,19.512  c0,8.822,5.459,16.377,13.161,19.48V84.292z M73.179,78.126c2.6-2.523,4.538-5.677,5.669-9.219h4.009  C80.935,73.094,77.465,76.414,73.179,78.126z"/></svg>