<svg fill="#fff" xmlns:x="http://ns.adobe.com/Extensibility/1.0/" xmlns:i="http://ns.adobe.com/AdobeIllustrator/10.0/" xmlns:graph="http://ns.adobe.com/Graphs/1.0/" xmlns="http://www.w3.org/2000/svg" xmlns:xlink="http://www.w3.org/1999/xlink" version="1.1" x="0px" y="0px" viewBox="0 0 100 125" enable-background="new 0 0 100 100" xml:space="preserve"><metadata><sfw xmlns="http://ns.adobe.com/SaveForWeb/1.0/"><slices/><sliceSourceBounds width="1447.2" height="1444.2" x="1" y="-1446.1" bottomLeftOrigin="true"/></sfw></metadata><path d="M27.3,59.9L13.8,73.5h78.5c1.4,0,2.5,1.1,2.5,2.5s-1.1,2.5-2.5,2.5H13.8L27.3,92c1,1,1,2.6,0,3.5c-0.5,0.5-1.1,0.7-1.8,0.7  s-1.3-0.2-1.8-0.7L6,77.8c-0.5-0.5-0.7-1.1-0.7-1.8s0.3-1.3,0.7-1.8l17.8-17.8c1-1,2.6-1,3.5,0C28.3,57.4,28.3,59,27.3,59.9z   M5.3,24c0,1.4,1.1,2.5,2.5,2.5h78.5L72.7,40.1c-1,1-1,2.6,0,3.5c0.5,0.5,1.1,0.7,1.8,0.7s1.3-0.2,1.8-0.7L94,25.8  c0.5-0.5,0.7-1.1,0.7-1.8s-0.3-1.3-0.7-1.8L76.2,4.4c-1-1-2.6-1-3.5,0c-1,1-1,2.6,0,3.5l13.5,13.5H7.8C6.4,21.5,5.3,22.6,5.3,24z"/></svg>