<svg xmlns="http://www.w3.org/2000/svg" data-name="Layer 1" viewBox="0 0 100 125" x="0px" y="0px"><title>map pin place</title><path style="fill:#fff;" d="M50,5A27,27,0,0,0,23,32c0,22.85,27,52.77,27,52.77S77,54.86,77,32A27,27,0,0,0,50,5Zm0,40.31A13.3,13.3,0,1,1,63.3,32,13.32,13.32,0,0,1,50,45.31Z"/><path style="fill:#fff;" d="M87.91,95H12.09a2.53,2.53,0,1,1,0-5H87.91a2.53,2.53,0,1,1,0,5Z"/><text x="0" y="115" fill="#fff" font-size="5px" font-weight="bold" font-family="'Helvetica Neue', Helvetica, Arial-Unicode, Arial, Sans-serif">Created by Markus</text><text x="0" y="120" fill="#fff" font-size="5px" font-weight="bold" font-family="'Helvetica Neue', Helvetica, Arial-Unicode, Arial, Sans-serif">from the Noun Project</text></svg>