<svg xmlns="http://www.w3.org/2000/svg" xmlns:xlink="http://www.w3.org/1999/xlink" version="1.1" x="0px" y="0px" viewBox="0 0 100 125" enable-background="new 0 0 100 100" xml:space="preserve"><g style="fill:#fff;"><path style="fill:#fff;" d="M42.189,54.242c0-5.238-4.237-9.478-9.478-9.478c-5.22,0-9.458,4.24-9.458,9.478c0,5.219,4.238,9.457,9.458,9.457   C37.952,63.699,42.189,59.461,42.189,54.242L42.189,54.242z"/></g><g style="fill:#fff;"><path style="fill:#fff;" d="M24.166,65.064c-8.732,4.123-13.247,13.854-10.794,23.158c12.315,5.494,26.375,5.494,38.689,0   c2.463-9.305-2.07-19.035-10.764-23.158C36.263,69.049,29.169,69.049,24.166,65.064z"/></g><path style="fill:#fff;" d="M47.617,44.245c1.824-1.607,3.061-3.805,3.5-6.211c-1.646-0.688-3.227-1.529-4.699-2.52  c-2.306-1.572-4.257-3.611-5.74-5.998c-1.129-1.852-1.754-4.002-1.754-6.199c0-2.18,0.625-4.328,1.754-6.191  c1.483-2.395,3.435-4.416,5.74-5.986c2.435-1.629,5.093-2.867,7.927-3.652c3.299-0.932,6.713-1.391,10.168-1.391  c3.434,0,6.826,0.459,10.162,1.391c2.818,0.785,5.479,2.023,7.898,3.652c2.338,1.57,4.281,3.592,5.742,5.986  c1.148,1.863,1.746,4.012,1.746,6.191c0,2.197-0.598,4.348-1.746,6.199c-1.461,2.387-3.404,4.426-5.742,5.998  c-2.42,1.627-5.08,2.863-7.898,3.637c-3.336,0.924-6.729,1.402-10.162,1.402c-3.338,0-6.643-0.439-9.854-1.303  C53.111,41.811,50.551,43.635,47.617,44.245z M63.895,33.774c0.186,0.346,0.619,0.463,0.961,0.256  c0.344-0.184,0.441-0.617,0.275-0.959c-0.07-0.121-0.166-0.207-0.275-0.256l2.543-4.377h5.041c0,0.371,0.314,0.697,0.729,0.697  c0.371,0,0.705-0.326,0.705-0.697c0-0.402-0.334-0.725-0.705-0.725c-0.137,0-0.258,0.037-0.375,0.107l-2.51-4.377l2.51-4.396  c0.334,0.197,0.785,0.08,0.973-0.264c0.186-0.344,0.088-0.775-0.254-0.963c-0.344-0.205-0.777-0.088-0.963,0.264  c-0.07,0.1-0.109,0.217-0.109,0.355h-5.041l-2.543-4.396c0.344-0.188,0.441-0.619,0.275-0.961c-0.205-0.346-0.658-0.463-0.992-0.256  c-0.332,0.188-0.451,0.619-0.244,0.963c0.049,0.115,0.137,0.205,0.244,0.254l-2.512,4.396h-5.062c0-0.393-0.334-0.719-0.705-0.719  c-0.414,0-0.727,0.326-0.727,0.719c0,0.381,0.312,0.707,0.727,0.707c0.098,0,0.236-0.041,0.342-0.1l2.543,4.396l-2.543,4.377  c-0.342-0.207-0.775-0.09-0.963,0.254c-0.205,0.344-0.088,0.775,0.246,0.963c0.334,0.205,0.785,0.086,0.99-0.258  c0.049-0.107,0.09-0.225,0.09-0.342h5.062l2.512,4.377C63.807,32.999,63.688,33.43,63.895,33.774z"/><text x="0" y="115" fill="#fff" font-size="5px" font-weight="bold" font-family="'Helvetica Neue', Helvetica, Arial-Unicode, Arial, Sans-serif">Created by Aldric Rodríguez</text><text x="0" y="120" fill="#fff" font-size="5px" font-weight="bold" font-family="'Helvetica Neue', Helvetica, Arial-Unicode, Arial, Sans-serif">from the Noun Project</text></svg>