<svg fill="#fff" xmlns="http://www.w3.org/2000/svg" xmlns:xlink="http://www.w3.org/1999/xlink" version="1.1" x="0px" y="0px" viewBox="0 0 371.981 343.10749999999996" enable-background="new 0 0 371.981 274.486" xml:space="preserve"><circle fill="none" stroke="#fff" stroke-width="10" stroke-miterlimit="10" cx="253.807" cy="63.401" r="51"/><path stroke="#fff" stroke-miterlimit="10" d="M206.604,66.401c0,4.418-3.582,8-8,8h-172c-4.418,0-8-3.582-8-8l0,0  c0-4.418,3.582-8,8-8h172C203.021,58.401,206.604,61.983,206.604,66.401L206.604,66.401z"/><path stroke="#fff" stroke-miterlimit="10" d="M348.604,66.401c0,4.418-3.582,8-8,8h-32c-4.418,0-8-3.582-8-8l0,0  c0-4.418,3.582-8,8-8h32C345.021,58.401,348.604,61.983,348.604,66.401L348.604,66.401z"/><circle fill="none" stroke="#fff" stroke-width="10" stroke-miterlimit="10" cx="113.4" cy="208.401" r="51"/><path stroke="#fff" stroke-miterlimit="10" d="M160.604,211.401c0,4.418,3.582,8,8,8h172c4.418,0,8-3.582,8-8l0,0  c0-4.418-3.582-8-8-8h-172C164.185,203.401,160.604,206.983,160.604,211.401L160.604,211.401z"/><path stroke="#fff" stroke-miterlimit="10" d="M18.604,211.401c0,4.418,3.582,8,8,8h32c4.418,0,8-3.582,8-8l0,0  c0-4.418-3.582-8-8-8h-32C22.186,203.401,18.604,206.983,18.604,211.401L18.604,211.401z"/></svg>